<svg xmlns="http://www.w3.org/2000/svg" xmlns:xlink="http://www.w3.org/1999/xlink" viewBox="0 0 56.69 56.71"><defs><style>.cls-1,.cls-10{fill:none;}.cls-2{fill:#fff;}.cls-3{clip-path:url(#clip-path);}.cls-4{fill:#766c6a;}.cls-5{fill:#8d807e;}.cls-6{fill:#bf8371;}.cls-7{fill:#9b6e5f;}.cls-8{fill:#fdd9cb;}.cls-9{fill:#f1f2f2;opacity:0.2;}.cls-10{stroke:#3c2415;stroke-miterlimit:10;stroke-width:0.25px;}.cls-11{fill:#d2c8bd;}.cls-12{fill:#b8afa5;}.cls-13{fill:#22242e;}.cls-14{fill:#f5969b;}.cls-15{fill:#d9a798;}.cls-16{fill:#c19e5e;}.cls-17{fill:#e3c183;}.cls-18{fill:#fefbdd;}</style><clipPath id="clip-path"><circle class="cls-1" cx="28.35" cy="28.35" r="28.35"/></clipPath></defs><g id="Layer_2" data-name="Layer 2"><g id="Layer_8" data-name="Layer 8"><circle class="cls-2" cx="28.35" cy="28.35" r="28.35"/><g class="cls-3"><path class="cls-4" d="M54.59,53.36l-.84-.51a2.74,2.74,0,0,0,.76-1.69c0-.93-1.52-2.28-1.69-2.53s-1.52-4.57-1.69-5.41A6.45,6.45,0,0,0,50,40.68c-.43-.42-1.86-4.9-2.29-5.16a13.17,13.17,0,0,0-2.11-1.35,19.25,19.25,0,0,0-3.8,0C41.46,34.24,45,51,46.25,56.7c3-.81,6.15-1.27,9.11-2.29A2.91,2.91,0,0,0,54.59,53.36Z"/><path class="cls-5" d="M49.59,43.91c0-.23-1.87-6.27-2-6.77A16.52,16.52,0,0,0,45,34.66a10.36,10.36,0,0,1-3.67-.3c-1.47-.52-3.5-2.87-3.5-2.87L23.61,34.66s-1.69.84-3.23,1.4-7,2-7,2l-.26,18.58H49.29S49.59,44.06,49.59,43.91Z"/><path class="cls-4" d="M19.87,43.39A22.1,22.1,0,0,0,16,38.16l-2.88,17.7c1.88.81,6.47.9,6.49.83C20.46,54.41,20.81,45.67,19.87,43.39Z"/><path class="cls-6" d="M23.75,34.36a1.6,1.6,0,0,0-1.25-2.2c-.77.07-1.88-1.59-1.88-1.59l10-9.83s4.26.79,4,2.9a10.4,10.4,0,0,0,.57,4.75c.34,1.21.77,2.08.6,2.19S23.75,34.36,23.75,34.36Z"/><path class="cls-7" d="M29.6,32.45c.45-1.08-4.18-6.68-4.18-6.68l5.2-5s4.26.79,4,2.9a10.4,10.4,0,0,0,.57,4.75c.34,1.21.77,2.08.6,2.19S29.6,32.45,29.6,32.45Z"/><path class="cls-8" d="M13.78,17.47a6.46,6.46,0,0,1,.71,4.46c-.59,2.35-.3,3.48.17,4.23A17.4,17.4,0,0,0,16.08,28l.82,2.12a5.78,5.78,0,0,0,.3,1.51c.23.45.58,1.61,1.92,1.48a10.12,10.12,0,0,0,2.94-.85,38.33,38.33,0,0,0,4.51-3,18.11,18.11,0,0,0,2-3.42l3.08-7L29.87,10Z"/><path d="M23.31,33.86a2.93,2.93,0,0,1,1.21-2.37A24.12,24.12,0,0,1,28.09,29c1.26-.66,3.72-2.37,5.28-2.72s1.51.35,1.51.35a8.27,8.27,0,0,0,.61,2.47,5.34,5.34,0,0,1,.6,1.56s-9.41,2.79-9.71,2.79a25.06,25.06,0,0,0-2.77,1.23Z"/><ellipse class="cls-9" cx="13.77" cy="23" rx="1.33" ry="2.34" transform="translate(-2.23 1.49) rotate(-5.75)"/><ellipse class="cls-9" cx="17.48" cy="22.54" rx="1.72" ry="2.74" transform="translate(-2.17 1.86) rotate(-5.75)"/><ellipse class="cls-10" cx="13.84" cy="23.04" rx="1.33" ry="2.34" transform="translate(-2.24 1.5) rotate(-5.75)"/><ellipse class="cls-10" cx="17.55" cy="22.57" rx="1.72" ry="2.74" transform="translate(-2.17 1.87) rotate(-5.75)"/><path class="cls-10" d="M15.07,22.38s-.13-.67.22-.49a4.18,4.18,0,0,0,.53.29"/><line class="cls-10" x1="19.09" y1="21.86" x2="29.76" y2="21.2"/><path class="cls-5" d="M18.15,51.23c0-.63.57-9.5-.79-11.31L16,38.11s.22,2.77-.06,3-3.11,10.06-3.11,10.06L8.51,53.78a82.43,82.43,0,0,0,7.93,2.91A25.57,25.57,0,0,0,18.15,51.23Z"/><path class="cls-11" d="M15.12,50.42c.68-2.31,1.79-5.34,1.61-7.66a31.27,31.27,0,0,0-.5-4.65c-.22-.65-2.82,0-2.82,0a2.57,2.57,0,0,0-1.47,1.59c-.23,1.07-.17,1.69-.29,1.86s-.9.74-1,1.41.11.91-.4,1.19-.79.23-.85,1,.12,1.64-.45,2.2-.62.4-.68,1.47a3,3,0,0,1-.5,2c-.46.73-1,1-1.19,1.41a1.9,1.9,0,0,0-.16.61c2,.85,3.95,1.78,5.94,2.65A23.23,23.23,0,0,0,15.12,50.42Z"/><path class="cls-11" d="M16.15,38.38s3.18,2,5,1.61,3.37-1.89,4.1-2.26,1.06-1.2,1.62-1.66a1.38,1.38,0,0,1,1.47-.37,4.13,4.13,0,0,0,1.52-.06s.51-.49-1.06-.9a10.92,10.92,0,0,0-3.55-.46,24.65,24.65,0,0,1-4.37,1.61c-1.62.23-2,0-3.09.41s-.88.63-2.12.85a14.32,14.32,0,0,0-2,.4,6.08,6.08,0,0,0-.78.87Z"/><path class="cls-12" d="M24.8,32.72s4.09-2.27,4.63-2.6,5.7-.48,6.09-1a1,1,0,0,1,.92-.41,40.55,40.55,0,0,1,2.37,3.66c.07.41-.49-.21-1.83-.25a25.43,25.43,0,0,0-7,1.22l-9.58,2.69,1.87-1.32Z"/><path class="cls-6" d="M28.46,25.82a16.9,16.9,0,0,0,2.25-1.14A10.37,10.37,0,0,0,32,22.76l-.76-1.63L29.47,22Z"/><path class="cls-8" d="M28.39,25.85s1.61-1.26,2-1.59a14.65,14.65,0,0,0,1.13-1.38s.48.17.4.44a4.05,4.05,0,0,1-.62,1.05,10.63,10.63,0,0,1-2,1.23A3.4,3.4,0,0,1,28.39,25.85Z"/><path class="cls-13" d="M37.88,19.5c-.14-1.57-.59-2.5-.64-3.28s.32-2.55-.59-3.66a16.93,16.93,0,0,0-3.4-3.66c-1.77-1.35-2.68-2.09-4-2.16a3.12,3.12,0,0,0-2.18.76,2.05,2.05,0,0,0-1.76-.76c-1.22,0-2,.94-2.44,1a14.58,14.58,0,0,1-2,0,8,8,0,0,0-5.05,2.44,9.08,9.08,0,0,0-2.94,6.48,7.08,7.08,0,0,0,1.35,4.23,2.36,2.36,0,0,0,1,.72,4.83,4.83,0,0,1-.68-1.79c-.19-1.1.06-1.41.06-1.41a2.43,2.43,0,0,0,1.41,1.37c1.53.58,1.73,1.16,2.83,1.45a11.81,11.81,0,0,1,1.62.56l1,.26a8.57,8.57,0,0,0,1.4.58,2.75,2.75,0,0,0,.92,0,.89.89,0,0,1-.7-.4c-.26-.4-.21-.46-.21-.46a2.35,2.35,0,0,0,1.66,1.09,3.54,3.54,0,0,0,.77,0s-.95-.61-1.06-1.17a5.54,5.54,0,0,1-.11-1.33c0-.24,0-.29,0-.29a4.63,4.63,0,0,0,1.15,1,12.94,12.94,0,0,0,1.76.63,1.93,1.93,0,0,1,1.31,1.48c.07.52-.32,1-.48,1.39a1,1,0,0,0,0,.75c0,.09.17.49.17.49s0-.68.21-.86l.37-.28a2,2,0,0,0-.14.48,1.43,1.43,0,0,0,.05.66A2.2,2.2,0,0,1,28.7,25c.18-.27.42-.74.42-.74s1.08-.94,1.61-.94a4.61,4.61,0,0,1,.78.05,14.47,14.47,0,0,0-.62,1.75,3.15,3.15,0,0,0,.41,1.51,3.68,3.68,0,0,0,.5.72,2.09,2.09,0,0,1,0-.62l.05-.35a6,6,0,0,0,.24.83l.08.14a1.23,1.23,0,0,0,.1-.24s.09.2.1.24,0,.08.17-.27a1.69,1.69,0,0,0,.18-.57,5.43,5.43,0,0,0,.19.79c.06.12.26.07.26.07L35,27.1a25.79,25.79,0,0,0,1.7-3.48c.2-.83,1.36-2.54,1.22-4.12"/><path class="cls-14" d="M15.89,28.3a.51.51,0,0,1-.19-.72l.31.16a.55.55,0,0,1,.22-.32c.16-.08.38-.08,1.34.16s1.57.51,1.71.48-1.8.22-2.14.24S15.89,28.3,15.89,28.3Z"/><path class="cls-14" d="M17.27,29.43a3.09,3.09,0,0,0,1.5-.66c.6-.54.71-.67.71-.67s-2.08.24-2.36.25l-.91,0c-.12,0-.29.56.07.85A1.24,1.24,0,0,0,17.27,29.43Z"/><path class="cls-15" d="M15.29,22.63a14.9,14.9,0,0,0-.74,2.67c0,.54.79.59,1.14.59s1.4.17,1.4.17Z"/><path class="cls-4" d="M37.78,48.55c-.27-5.28.09-5,0-8.89a12.76,12.76,0,0,0-2-6.57l.53,2c.53,2,.57,3.52.52,8.06s.18,4.36.37,9a21.12,21.12,0,0,1-.07,4.52,5.45,5.45,0,0,0,.7,0C37.9,53.92,38,52.47,37.78,48.55Z"/><path class="cls-16" d="M29.07,26.19a.82.82,0,0,0,.51.75,1.42,1.42,0,0,1,.52.54c.14.22.29.42.44.63a.47.47,0,0,1,.08.53c0,.05,0,.08,0,.11a1.72,1.72,0,0,1,.26.4.2.2,0,0,1-.05.3.18.18,0,0,0-.06.26c.05.14.07.26-.06.36a.17.17,0,0,0-.06.19l0,.22c0,.05,0,.12,0,.15a.31.31,0,0,0-.14.27.16.16,0,0,1-.07.14.23.23,0,0,0-.15.21s0,.06,0,.07c-.21.1-.3.35-.53.44a.5.5,0,0,1-.5,0c-.09-.06-.21-.07-.31-.13a.7.7,0,0,1-.33-.37s0-.08-.09-.09-.18-.08-.16-.21,0-.15-.1-.12a0,0,0,0,1-.06,0c0-.11-.11-.19-.09-.31s0-.07-.05-.09a.4.4,0,0,1-.27-.55c0-.08,0-.08-.06-.08s-.31-.11-.3-.33a.68.68,0,0,1,0-.28s0-.07,0-.09a.3.3,0,0,1-.05-.45.15.15,0,0,0,.06-.16.42.42,0,0,1,.09-.31.49.49,0,0,0,.12-.4.69.69,0,0,1,.35-.55.63.63,0,0,0,.28-.23c.12-.16.23-.32.36-.47a.86.86,0,0,0,.12-.56.47.47,0,0,0,0-.17c0-.1,0-.14.11-.16s.12,0,.15.1A2.68,2.68,0,0,1,29.07,26.19Zm.08,1.69a.54.54,0,0,0,.23.4,7.36,7.36,0,0,1,.77.71,1.58,1.58,0,0,0,.28.3c.06,0,.15.1.21,0s0-.13-.05-.19-.08-.12,0-.2,0-.08,0-.09l-.19,0c-.09,0-.13-.05-.08-.14s0-.12-.05-.16l-.38-.3-.53-.44s-.09-.12-.14-.09S29.14,27.81,29.15,27.88Zm-1.43,1.47a2.1,2.1,0,0,0,.42-.48c.24-.45.47-.91.69-1.37a.35.35,0,0,0,0-.27,2.79,2.79,0,0,0-.28.42,2.14,2.14,0,0,1-.43.56,2.16,2.16,0,0,0-.48.56.33.33,0,0,0,0,.33A.24.24,0,0,1,27.72,29.35Zm1.47-.77a.66.66,0,0,0,.27.42,2.61,2.61,0,0,1,.51.59c.13.21.24.43.36.64,0,0,0,.1.07.09s0-.08,0-.12,0-.12,0-.19,0-.09.08-.09.13-.05.08-.14a2.48,2.48,0,0,0-.19-.26,10.7,10.7,0,0,0-1-1s-.05-.08-.1-.06S29.19,28.54,29.19,28.58Zm-1.55-.2a3.61,3.61,0,0,0,1.16-1.63,1.28,1.28,0,0,0-.28.29,1.07,1.07,0,0,1-.45.37.3.3,0,0,0-.17.14A7.29,7.29,0,0,0,27.64,28.38Zm1.54,1.27s0-.12,0-.19,0-.08-.05-.08,0,.05-.06.08l-.27.79c-.06.2-.1.41-.15.61s.1.11.16.15,0,0,.05-.08c.1-.24.21-.49.3-.75A1,1,0,0,0,29.18,29.65Zm.09-.59a.91.91,0,0,0,.2.65c.12.13.23.25.34.39a3.1,3.1,0,0,1,.38.69s0,.08.07.06,0-.05,0-.09a.58.58,0,0,0,0-.18,4.58,4.58,0,0,0-.34-.66A3.35,3.35,0,0,0,29.27,29.06Zm-.15-1.76a.34.34,0,0,0,.13.2l.67.56a2.73,2.73,0,0,0,.43.33s.08,0,.11,0a.09.09,0,0,0,0-.11.14.14,0,0,0-.08-.05c-.05,0-.1-.07-.09-.14s0-.14-.12-.18a1,1,0,0,1-.31-.2,3.85,3.85,0,0,0-.57-.5s-.06-.08-.11-.05S29.12,27.24,29.12,27.3ZM29,28.56a.33.33,0,0,0-.1.14c-.12.31-.23.62-.37.92l-.27.54c0,.08-.06.15,0,.2a.19.19,0,0,1,.1.2s0,.06,0,.07,0,0,.05-.06,0-.22.05-.33a4.05,4.05,0,0,1,.42-1.18A.66.66,0,0,0,29,28.56Zm-.07-.66s-.05,0-.06.06a2.35,2.35,0,0,0-.19.39A2.72,2.72,0,0,1,28,29.41a.81.81,0,0,0-.09.1c0,.06,0,.1.05.11a.14.14,0,0,1,.12.15.5.5,0,0,0,0,.12l0,0c.26-.58.51-1.15.76-1.73A.29.29,0,0,0,28.92,27.9Zm.5,2.06a1.89,1.89,0,0,0,.63,1.21C30,30.67,29.65,30.35,29.42,30Zm-.16.44a1.08,1.08,0,0,0-.11.28,2.54,2.54,0,0,0-.19.65s0,.09,0,.1.07,0,.1-.06A.94.94,0,0,0,29.26,30.4Zm.31.38,0,0c0,.24.06.49,0,.73a.07.07,0,0,0,0,.05.08.08,0,0,0,.06,0,.42.42,0,0,1,.13-.21.11.11,0,0,0,0-.11A1.46,1.46,0,0,0,29.57,30.78Zm-.43-3.92a2.57,2.57,0,0,0,.8.7.69.69,0,0,0-.21-.32A2.49,2.49,0,0,1,29.3,27,.31.31,0,0,0,29.14,26.86Zm.21,4.78,0,0a.45.45,0,0,0,0-.23h0c-.05,0-.09.07-.08.13S29.3,31.61,29.35,31.64ZM29,25.56a.21.21,0,1,1-.4,0,.2.2,0,1,1,.4,0Z"/><path class="cls-17" d="M28.89,25.62h-.06c-.08,0-.14.06-.11.16a.47.47,0,0,1,0,.17.84.84,0,0,1-.12.56c-.13.15-.24.31-.36.47a.63.63,0,0,1-.28.23.69.69,0,0,0-.35.55.49.49,0,0,1-.12.4.42.42,0,0,0-.09.31.15.15,0,0,1-.06.16.3.3,0,0,0,.05.45s.08.05,0,.09a.68.68,0,0,0,0,.28c0,.22.08.32.3.33s.08,0,.06.08a.4.4,0,0,0,.27.55s.06,0,.05.09.09.2.09.32a0,0,0,0,0,.06,0c.13,0,.11,0,.1.12s0,.19.16.21.07.05.09.09a.7.7,0,0,0,.33.37c.1.06.22.07.31.13a.39.39,0,0,0,.27.06Zm-1,1.93a.3.3,0,0,1,.17-.14,1,1,0,0,0,.45-.37,1.28,1.28,0,0,1,.28-.29,3.61,3.61,0,0,1-1.16,1.63A7.29,7.29,0,0,1,27.9,27.55Zm-.18,1.8a.24.24,0,0,0-.06-.25.33.33,0,0,1,0-.33,2.16,2.16,0,0,1,.48-.56,2.14,2.14,0,0,0,.43-.56,2.79,2.79,0,0,1,.28-.42.35.35,0,0,1,0,.27c-.22.46-.45.92-.69,1.37A2.1,2.1,0,0,1,27.72,29.35Zm.4.52,0,0a.5.5,0,0,1,0-.12.14.14,0,0,0-.12-.15c-.09,0-.08-.05-.05-.11a.81.81,0,0,1,.09-.1,2.72,2.72,0,0,0,.68-1.06,2.35,2.35,0,0,1,.19-.39s0-.06.06-.06a.29.29,0,0,1,0,.24C28.63,28.72,28.38,29.29,28.12,29.87Zm.34.7s0,.07-.05.06,0,0,0-.07a.19.19,0,0,0-.1-.2c-.1-.05-.08-.12,0-.2l.27-.54c.14-.3.25-.61.37-.92a.33.33,0,0,1,.1-.14.66.66,0,0,1-.06.5,4.05,4.05,0,0,0-.42,1.18C28.49,30.35,28.48,30.46,28.46,30.57Zm.36.36s0,.12-.05.08-.19,0-.16-.15.09-.41.15-.61l.27-.79s0-.08.06-.08,0,.05.05.08,0,.15,0,.19a1.08,1.08,0,0,1-.06.54C29,30.44,28.92,30.69,28.82,30.93Zm.56.69,0,0c-.05,0-.11-.05-.11-.12a.13.13,0,0,1,.08-.14h0A.45.45,0,0,1,29.38,31.62Zm-.29-.25s-.06.07-.1.06,0-.06,0-.1a2.54,2.54,0,0,1,.19-.65,1.08,1.08,0,0,1,.11-.28A.94.94,0,0,1,29.09,31.37Z"/><ellipse class="cls-18" cx="28.72" cy="25.56" rx="0.18" ry="0.21"/></g></g></g></svg>